HIERARCHY
ROOT Hips
{
  OFFSET 5.84602e-005 68.8428 3.50346
  CHANNELS 6 Xposition Yposition Zposition Zrotation Xrotation Yrotation
  JOINT Spine
  {
    OFFSET 0 8.597 -4.6522
    CHANNELS 3 Zrotation Xrotation Yrotation
    JOINT Spine1
    {
      OFFSET 0 7.8454 0.4098
      CHANNELS 3 Zrotation Xrotation Yrotation
      JOINT Spine2
      {
        OFFSET 0 9.7078 -2.1609
        CHANNELS 3 Zrotation Xrotation Yrotation
        JOINT Neck
        {
          OFFSET 0 21.8761 -0.4549
          CHANNELS 3 Zrotation Xrotation Yrotation
          JOINT Head
          {
            OFFSET 0 12.3537 3.3602
            CHANNELS 3 Zrotation Xrotation Yrotation
            End Site
            {
              OFFSET 0.0001 18.9506 0.5657
            }
          }
        }
        JOINT LeftShoulder
        {
          OFFSET 2.2086 21.1115 7.2329
          CHANNELS 3 Zrotation Xrotation Yrotation
          JOINT LeftArm
          {
            OFFSET 13.1193 3.0282 -4.8998
            CHANNELS 3 Zrotation Xrotation Yrotation
            JOINT LeftForeArm
            {
              OFFSET 27.4081 -0.0973053 -0.2375
              CHANNELS 3 Zrotation Xrotation Yrotation
              JOINT LeftHand
              {
                OFFSET 22.8641 0.0662994 -0.1369
                CHANNELS 3 Zrotation Xrotation Yrotation
                JOINT LeftHandIndex1
                {
                  OFFSET 8.8614 0.775009 2.4612
                  CHANNELS 3 Zrotation Xrotation Yrotation
                  JOINT LeftHandIndex2
                  {
                    OFFSET 3.3146 -0.808304 0.5841
                    CHANNELS 3 Zrotation Xrotation Yrotation
                    JOINT LeftHandIndex3
                    {
                      OFFSET 2.2628 -0.552002 0.3989
                      CHANNELS 3 Zrotation Xrotation Yrotation
                      End Site
                      {
                        OFFSET 1.6102 -0.4807 0.2612
                      }
                    }
                  }
                }
                JOINT LeftHandMiddle1
                {
                  OFFSET 8.9937 0.895004 0.2143
                  CHANNELS 3 Zrotation Xrotation Yrotation
                  JOINT LeftHandMiddle2
                  {
                    OFFSET 4.0984 0.0113983 -0.0242
                    CHANNELS 3 Zrotation Xrotation Yrotation
                    JOINT LeftHandMiddle3
                    {
                      OFFSET 2.2716 0.00689697 -0.0138001
                      CHANNELS 3 Zrotation Xrotation Yrotation
                      End Site
                      {
                        OFFSET 2.0404 -0.1441 0.0027
                      }
                    }
                  }
                }
                JOINT LeftHandRing1
                {
                  OFFSET 8.5234 0.597198 -2.0164
                  CHANNELS 3 Zrotation Xrotation Yrotation
                  JOINT LeftHandRing2
                  {
                    OFFSET 3.7188 -0.188293 -0.2328
                    CHANNELS 3 Zrotation Xrotation Yrotation
                    JOINT LeftHandRing3
                    {
                      OFFSET 2.1191 -0.106598 -0.1332
                      CHANNELS 3 Zrotation Xrotation Yrotation
                      End Site
                      {
                        OFFSET 1.8737 -0.2304 -0.0886
                      }
                    }
                  }
                }
                JOINT LeftHandPinky1
                {
                  OFFSET 7.9094 -0.601089 -3.4825
                  CHANNELS 3 Zrotation Xrotation Yrotation
                  JOINT LeftHandPinky2
                  {
                    OFFSET 2.2874 -0.477005 -0.6314
                    CHANNELS 3 Zrotation Xrotation Yrotation
                    JOINT LeftHandPinky3
                    {
                      OFFSET 1.6774 -0.349396 -0.4633
                      CHANNELS 3 Zrotation Xrotation Yrotation
                      End Site
                      {
                        OFFSET 1.4888 -0.4091 -0.3416
                      }
                    }
                  }
                }
                JOINT LeftHandThumb1
                {
                  OFFSET 1.833 -1.3875 1.3896
                  CHANNELS 3 Zrotation Xrotation Yrotation
                  JOINT LeftHandThumb2
                  {
                    OFFSET 3.4129 -1.121 2.5732
                    CHANNELS 3 Zrotation Xrotation Yrotation
                    JOINT LeftHandThumb3
                    {
                      OFFSET 2.2474 -0.804199 1.6192
                      CHANNELS 3 Zrotation Xrotation Yrotation
                      End Site
                      {
                        OFFSET 1.6527 -0.5689 1.1317
                      }
                    }
                  }
                }
              }
            }
          }
        }
        JOINT RightShoulder
        {
          OFFSET -2.2086 21.1115 7.2329
          CHANNELS 3 Zrotation Xrotation Yrotation
          JOINT RightArm
          {
            OFFSET -13.1216 3.0287 -4.9007
            CHANNELS 3 Zrotation Xrotation Yrotation
            JOINT RightForeArm
            {
              OFFSET -27.4081 -0.0973053 -0.2375
              CHANNELS 3 Zrotation Xrotation Yrotation
              JOINT RightHand
              {
                OFFSET -22.8641 0.0664063 -0.1369
                CHANNELS 3 Zrotation Xrotation Yrotation
                JOINT RightHandIndex1
                {
                  OFFSET -8.8614 0.774994 2.4612
                  CHANNELS 3 Zrotation Xrotation Yrotation
                  JOINT RightHandIndex2
                  {
                    OFFSET -3.3146 -0.808304 0.5841
                    CHANNELS 3 Zrotation Xrotation Yrotation
                    JOINT RightHandIndex3
                    {
                      OFFSET -2.2628 -0.552002 0.3989
                      CHANNELS 3 Zrotation Xrotation Yrotation
                      End Site
                      {
                        OFFSET -1.6102 -0.4807 0.2612
                      }
                    }
                  }
                }
                JOINT RightHandMiddle1
                {
                  OFFSET -8.9937 0.894989 0.2143
                  CHANNELS 3 Zrotation Xrotation Yrotation
                  JOINT RightHandMiddle2
                  {
                    OFFSET -4.0984 0.0113983 -0.0242
                    CHANNELS 3 Zrotation Xrotation Yrotation
                    JOINT RightHandMiddle3
                    {
                      OFFSET -2.2716 0.00691223 -0.0138001
                      CHANNELS 3 Zrotation Xrotation Yrotation
                      End Site
                      {
                        OFFSET -2.0404 -0.1441 0.0027
                      }
                    }
                  }
                }
                JOINT RightHandRing1
                {
                  OFFSET -8.5234 0.597198 -2.0164
                  CHANNELS 3 Zrotation Xrotation Yrotation
                  JOINT RightHandRing2
                  {
                    OFFSET -3.7188 -0.188309 -0.2328
                    CHANNELS 3 Zrotation Xrotation Yrotation
                    JOINT RightHandRing3
                    {
                      OFFSET -2.1191 -0.106598 -0.1332
                      CHANNELS 3 Zrotation Xrotation Yrotation
                      End Site
                      {
                        OFFSET -1.8737 -0.2304 -0.0886
                      }
                    }
                  }
                }
                JOINT RightHandPinky1
                {
                  OFFSET -7.9094 -0.601105 -3.4825
                  CHANNELS 3 Zrotation Xrotation Yrotation
                  JOINT RightHandPinky2
                  {
                    OFFSET -2.2874 -0.477005 -0.6314
                    CHANNELS 3 Zrotation Xrotation Yrotation
                    JOINT RightHandPinky3
                    {
                      OFFSET -1.6774 -0.349396 -0.4633
                      CHANNELS 3 Zrotation Xrotation Yrotation
                      End Site
                      {
                        OFFSET -1.4888 -0.4091 -0.3416
                      }
                    }
                  }
                }
                JOINT RightHandThumb1
                {
                  OFFSET -1.833 -1.38751 1.3896
                  CHANNELS 3 Zrotation Xrotation Yrotation
                  JOINT RightHandThumb2
                  {
                    OFFSET -3.41299 -1.12099 2.5732
                    CHANNELS 3 Zrotation Xrotation Yrotation
                    JOINT RightHandThumb3
                    {
                      OFFSET -2.24741 -0.804108 1.6192
                      CHANNELS 3 Zrotation Xrotation Yrotation
                      End Site
                      {
                        OFFSET -1.6527 -0.5689 1.1317
                      }
                    }
                  }
                }
              }
            }
          }
        }
      }
    }
  }
  JOINT RightUpLeg
  {
    OFFSET -9.1966 3.8861 -0.7581
    CHANNELS 3 Zrotation Xrotation Yrotation
    JOINT RightLeg
    {
      OFFSET -0.7359 -41.0265 0
      CHANNELS 3 Zrotation Xrotation Yrotation
      JOINT RightFoot
      {
        OFFSET 0 -40.2855 0
        CHANNELS 3 Zrotation Xrotation Yrotation
        JOINT RightToeBase
        {
          OFFSET 0 -5.6122 11.7359
          CHANNELS 3 Zrotation Xrotation Yrotation
          End Site
          {
            OFFSET 0 0 7.8731
          }
        }
      }
    }
  }
  JOINT LeftUpLeg
  {
    OFFSET 9.1965 3.8864 -0.7581
    CHANNELS 3 Zrotation Xrotation Yrotation
    JOINT LeftLeg
    {
      OFFSET 0.7359 -41.0268 0
      CHANNELS 3 Zrotation Xrotation Yrotation
      JOINT LeftFoot
      {
        OFFSET 0 -40.2855 0
        CHANNELS 3 Zrotation Xrotation Yrotation
        JOINT LeftToeBase
        {
          OFFSET 0 -5.6122 11.7359
          CHANNELS 3 Zrotation Xrotation Yrotation
          End Site
          {
            OFFSET 0 0 7.8731
          }
        }
      }
    }
  }
}
MOTION
Frames:	6
Frame Time:	0.0333333
5.84602e-005 68.8428 3.50346 0 0 -0 0 0 -0 0 0 -0 0 0 -0 0 0 -0 0 0 -0 0 0 -0 0 0 -0 0 0 -0 0 0 -0 0 0 -0 0 0 -0 0 0 -0 0 0 -0 -0.0146107 -8.87603e-005 -2.63497e-007 2.99804e-018 -2.42657e-020 -1.42182e-022 0 0 -0 -0.0187562 -0.001176 5.858e-005 5.06224e-018 3.88251e-019 1.21329e-020 0 0 -0 -0.012269 -0.00324817 0.000675346 -1.74678e-018 3.88251e-019 -0 0 0 -0 0 0 -0 0 0 -0 0 0 -0 0 0 -0 0 0 -0 0 0 -0 0 0 -0 0 0 -0 0 0 -0 0 0 -0 0.0149955 -9.10982e-005 2.64101e-007 -9.69331e-018 1.21329e-020 -4.7394e-023 0 0 -0 0.0189956 -0.00119102 -5.96516e-005 -5.41541e-019 0 2.42657e-020 0 0 -0 0.0122698 -0.00324857 -0.000673756 -2.00796e-019 0 -1.94126e-019 0 0 -0 0 0 -0 0 0 -0 3.39842 1.33031 -0.0637918 -5.65207e-008 0.834868 -0.000436188 -3.39935 -2.16518 -0.0642563 -8.89002e-024 -1.18485e-023 -1.48106e-024 -3.39844 1.35642 0.0640283 -3.18788e-007 0.782166 -0.000588827 3.39931 -2.13858 0.0634662 1.1399e-023 0 -0 
-7.36359 15.1806 42.5248 -180 68.9257 -180 -0.115865 -5.92573 -0.457621 -0.28189 -11.8503 -0.934931 -0.28189 -11.8503 -0.93493 -4.40946e-007 -33.2074 -4.80125e-007 -3.72229e-007 -16.1336 -1.16919e-007 -6.26031 -8.70148 -26.9292 7.34041 -1.19714 -21.3595 36.7713 -21.208 -41.1186 10.4529 -8.38702 1.4575 -0 -2.78299e-015 -0 6.36111e-015 -1.98785e-015 7.95139e-016 2.48282e-032 -1.78906e-015 7.95139e-016 -0 -2.78299e-015 -0 -0.0146288 -8.91269e-005 4.87692e-006 -3.18055e-015 9.93923e-016 7.95139e-016 -0 -2.78299e-015 -0 -0.0187552 -0.00117579 5.5912e-005 5.51738e-033 -3.97569e-016 7.95139e-016 -0 -2.78299e-015 -0 -0.0122386 -0.0032394 0.00067755 3.18055e-015 3.97569e-016 2.38542e-015 -0 -2.78299e-015 -0 6.36111e-015 -1.98785e-015 7.95139e-016 2.48282e-032 -1.78906e-015 7.95139e-016 6.87326 -8.78451 26.3753 -7.97791 -1.3479 22.4874 -31.9706 -17.7642 44.1953 -10.8063 -7.94532 -3.06795 -9.54166e-015 -1.98785e-015 7.95139e-016 -1.27222e-014 -2.38542e-015 1.59028e-015 -1.27222e-014 -2.78299e-015 -7.95139e-016 -9.54166e-015 -1.98785e-015 7.95139e-016 0.0149588 -9.11569e-005 -1.98589e-007 -0 -1.19271e-015 -0 -9.54166e-015 -1.98785e-015 7.95139e-016 0.0190909 -0.00119695 -5.86673e-005 -6.36111e-015 -7.95139e-016 -7.95139e-016 -9.54166e-015 -1.98785e-015 7.95139e-016 0.0121915 -0.00322685 -0.000670748 -4.38618e-007 -5.17085e-008 5.85984e-007 -9.54166e-015 -1.98785e-015 7.95139e-016 -1.27222e-014 -2.38542e-015 1.59028e-015 -1.27222e-014 -2.78299e-015 -7.95139e-016 -113.356 -37.1008 -114.692 -89.4276 80.5093 97.5779 -34.1895 34.297 62.4105 -1.20048e-008 3.25084e-006 3.52267e-007 113.389 -37.1267 114.676 89.4185 80.552 -97.5811 34.1616 34.3321 -62.4179 -7.2525e-008 -3.2664e-006 1.49009e-007 
-6.93035 17.284 39.7399 -180 77.2185 -180 -0.106612 -4.89137 -0.428669 -0.251491 -9.78179 -0.871303 -0.251491 -9.78177 -0.871303 -1.04079e-005 -32.2238 -4.85926e-006 -2.29458e-007 -15.8902 5.69174e-008 -4.70634 -9.39597 -25.5553 6.93344 -1.13614 -20.1026 35.0948 -20.3209 -37.8865 10.8227 -8.47741 1.46381 3.18055e-015 1.35174e-014 4.37326e-015 -3.18055e-015 1.2424e-014 3.18055e-015 -1.09244e-030 1.31198e-014 4.77083e-015 3.18055e-015 1.35174e-014 4.37326e-015 -0.0145949 -8.75773e-005 -2.47538e-006 -4.94902e-007 -4.0023e-007 1.87854e-007 3.18055e-015 1.35174e-014 4.37326e-015 -0.0187125 -0.0011739 6.22658e-005 -3.18055e-015 7.95139e-016 -3.97569e-016 3.18055e-015 1.35174e-014 4.37326e-015 -0.0122032 -0.00323141 0.000666475 6.36111e-015 1.2921e-015 -1.19271e-015 3.18055e-015 1.35174e-014 4.37326e-015 -3.18055e-015 1.2424e-014 3.18055e-015 -1.09244e-030 1.31198e-014 4.77083e-015 5.23586 -9.53516 25.1471 -7.428 -1.26197 20.7697 -30.5278 -17.0984 40.8166 -11.0926 -8.06462 -3.02227 6.80887e-007 -1.80642e-007 -1.3845e-007 3.18055e-015 0 -3.97569e-016 6.36111e-015 -9.93923e-017 -0 6.80887e-007 -1.80642e-007 -1.3845e-007 0.0149914 -9.3398e-005 -7.01669e-006 6.36111e-015 -1.39149e-014 3.97569e-016 6.80887e-007 -1.80642e-007 -1.3845e-007 0.0189834 -0.0011885 -4.81858e-005 -3.18055e-015 1.0635e-014 -4.37326e-015 6.80887e-007 -1.80642e-007 -1.3845e-007 0.0123298 -0.00326402 -0.000686714 -4.13804e-033 5.96354e-016 3.97569e-016 6.80887e-007 -1.80642e-007 -1.3845e-007 3.18055e-015 0 -3.97569e-016 6.36111e-015 -9.93923e-017 -0 -105.023 -40.6178 -110.286 -58.0228 80.5529 66.1587 -32.5365 33.381 59.9068 2.96507e-010 3.15877e-006 2.31401e-007 105.051 -40.6986 110.221 57.8853 80.5873 -66.032 32.4268 33.435 -59.8506 8.60493e-007 6.33231e-006 -5.97876e-007 
-6.93025 16.7414 39.7981 -180 78.8833 -180 -0.111288 -4.23155 -0.426295 -0.255293 -8.46214 -0.864409 -0.255293 -8.46214 -0.864409 1.54844e-005 -33.1406 5.29222e-006 -5.92042e-008 -16.5568 -4.30361e-008 -3.80336 -10.4362 -25.7667 6.93344 -1.13612 -20.1026 34.7192 -20.0512 -37.3585 11.7672 -9.02733 1.56219 -1.16613e-006 -1.22563e-006 -1.28625e-007 -1.16613e-006 -1.22563e-006 -1.28625e-007 2.97475e-008 -1.19588e-006 -1.60689e-007 -1.16613e-006 -1.22563e-006 -1.28625e-007 -0.0146154 -9.08622e-005 -5.50395e-007 2.97515e-008 -1.19586e-006 -1.60842e-007 -1.16613e-006 -1.22563e-006 -1.28625e-007 -0.0187581 -0.00117707 5.68972e-005 2.97505e-008 -1.19585e-006 -1.60885e-007 -1.16613e-006 -1.22563e-006 -1.28625e-007 -0.0122625 -0.00324869 0.000686909 2.97392e-008 -1.19586e-006 -1.60818e-007 -1.16613e-006 -1.22563e-006 -1.28625e-007 -1.16613e-006 -1.22563e-006 -1.28625e-007 2.97475e-008 -1.19588e-006 -1.60689e-007 4.28734 -10.639 25.4639 -7.32392 -1.24528 20.3973 -30.1982 -16.8313 40.2468 -11.9891 -8.61582 -3.16201 9.54166e-015 -1.09332e-015 -3.97569e-016 6.36111e-015 3.97569e-016 -3.97569e-016 6.36111e-015 5.96354e-016 3.97569e-016 9.54166e-015 -1.09332e-015 -3.97569e-016 0.0150088 -9.34932e-005 -6.59854e-006 0 1.98785e-016 -0 9.54166e-015 -1.09332e-015 -3.97569e-016 0.0190511 -0.00119439 -6.26673e-005 3.18055e-015 -1.37161e-014 3.97569e-016 9.54166e-015 -1.09332e-015 -3.97569e-016 0.0121822 -0.00322599 -0.000677067 -9.54166e-015 -9.93923e-016 -7.95139e-016 9.54166e-015 -1.09332e-015 -3.97569e-016 6.36111e-015 3.97569e-016 -3.97569e-016 6.36111e-015 5.96354e-016 3.97569e-016 -103.293 -39.211 -109.193 -57.8207 80.5324 65.9471 -34.7605 32.244 61.6124 -1.25205e-006 1.23699e-006 -2.30383e-007 103.32 -39.3452 109.086 57.683 80.5668 -65.821 34.5773 32.3211 -61.5025 -2.00317e-008 -3.75504e-009 -4.93152e-008 
-6.93017 16.1997 39.8633 -180 80.5506 -180 -0.115967 -3.56266 -0.423542 -0.25913 -7.12435 -0.856815 -0.25913 -7.12432 -0.856815 1.89593e-006 -34.0567 -3.72612e-007 -5.65927e-007 -17.2236 -2.52656e-008 -2.9001 -11.4807 -25.9623 6.93344 -1.13612 -20.1026 34.3414 -19.7847 -36.8293 12.7148 -9.57593 1.67001 -3.18055e-015 2.48481e-015 7.95139e-016 -3.18055e-015 2.38542e-015 -0 -1.17244e-032 1.68967e-015 3.97569e-016 -3.18055e-015 2.48481e-015 7.95139e-016 -0.0146341 -8.91809e-005 -1.1502e-006 -0 -1.19271e-015 -0 -3.18055e-015 2.48481e-015 7.95139e-016 -0.0188018 -0.00117957 6.37738e-005 3.18055e-015 1.33186e-014 2.78299e-015 -3.18055e-015 2.48481e-015 7.95139e-016 -0.0122792 -0.00325053 0.00067494 3.18055e-015 9.93923e-016 -3.97569e-016 -3.18055e-015 2.48481e-015 7.95139e-016 -3.18055e-015 2.38542e-015 -0 -1.17244e-032 1.68967e-015 3.97569e-016 3.3402 -11.7494 25.7636 -7.21973 -1.22924 20.0248 -29.8662 -16.5672 39.676 -12.8888 -9.1651 -3.31077 -3.18055e-015 -1.2921e-015 -0 -6.36111e-015 -1.19271e-015 -7.95139e-016 6.89673e-033 -9.93923e-016 3.97569e-016 -3.18055e-015 -1.2921e-015 -0 0.0149746 -9.10149e-005 -4.59861e-006 2.75869e-033 3.97569e-016 -3.97569e-016 -3.18055e-015 -1.2921e-015 -0 0.0191255 -0.00119994 -5.97865e-005 -6.36111e-015 0 -0 -3.18055e-015 -1.2921e-015 -0 0.0123424 -0.00326742 -0.00067911 -3.18055e-015 -1.09332e-015 -0 -3.18055e-015 -1.2921e-015 -0 -6.36111e-015 -1.19271e-015 -7.95139e-016 6.89673e-033 -9.93923e-016 3.97569e-016 -101.629 -37.7769 -108.175 -57.6201 80.5118 65.7396 -36.9194 31.0509 63.2469 -8.03081e-007 -1.13342e-006 -3.38306e-007 101.656 -37.9639 108.023 57.4822 80.5461 -65.6138 36.6657 31.1547 -63.0869 8.48856e-007 6.02866e-009 -1.73679e-007 
-6.9301 15.6592 39.9354 -180 82.2198 -180 -0.120632 -2.88702 -0.420407 -0.263004 -5.77307 -0.848527 -0.263004 -5.77307 -0.848527 -2.91878e-005 -34.9735 -1.43349e-005 2.66153e-007 -17.8905 1.01669e-007 -1.99625 -12.529 -26.1419 6.93344 -1.13611 -20.1026 33.9616 -19.5213 -36.299 13.6654 -10.123 1.78724 3.18055e-015 1.10325e-014 3.57812e-015 9.54166e-015 1.08338e-014 3.18055e-015 6.36111e-015 1.12313e-014 2.38542e-015 3.18055e-015 1.10325e-014 3.57812e-015 -0.0145623 -8.95764e-005 2.17383e-006 -3.18055e-015 1.2921e-014 3.18055e-015 3.18055e-015 1.10325e-014 3.57812e-015 -0.0187905 -0.00117799 5.7619e-005 -0 0 3.97569e-016 3.18055e-015 1.10325e-014 3.57812e-015 -0.0123857 -0.00327894 0.000682693 -6.89673e-034 9.93923e-017 3.97569e-016 3.18055e-015 1.10325e-014 3.57812e-015 9.54166e-015 1.08338e-014 3.18055e-015 6.36111e-015 1.12313e-014 2.38542e-015 2.39411 -12.8655 26.0459 -7.11543 -1.21387 19.6523 -29.5318 -16.3063 39.1043 -13.7919 -9.71226 -3.46861 3.18055e-015 -8.94531e-016 -0 3.44836e-033 -4.96962e-016 3.97569e-016 3.18055e-015 -2.98177e-016 3.97569e-016 3.18055e-015 -8.94531e-016 -0 0.0150099 -9.23003e-005 -3.26017e-006 1.90833e-014 -6.95746e-016 7.95139e-016 3.18055e-015 -8.94531e-016 -0 0.0189478 -0.00118865 -5.72103e-005 -2.75869e-033 -3.97569e-016 -3.97569e-016 3.18055e-015 -8.94531e-016 -0 0.0121396 -0.00321233 -0.000676137 6.36111e-015 -1.33186e-014 -0 3.18055e-015 -8.94531e-016 -0 3.44836e-033 -4.96962e-016 3.97569e-016 3.18055e-015 -2.98177e-016 3.97569e-016 -100.03 -36.3187 -107.227 -57.4206 80.4911 65.5358 -39.0129 29.8061 64.8101 -1.61147e-007 3.04984e-008 -3.941e-007 100.054 -36.5575 107.03 57.282 80.5253 -65.4098 38.692 29.9399 -64.6035 1.41942e-007 -2.01475e-006 9.89693e-009 
